<?xml version="1.0" encoding="utf-8"?>
<!-- Generator: Adobe Illustrator 24.2.3, SVG Export Plug-In . SVG Version: 6.00 Build 0)  -->
<svg version="1.1" id="Camada_1" xmlns="http://www.w3.org/2000/svg" xmlns:xlink="http://www.w3.org/1999/xlink" x="0px" y="0px"
	 viewBox="0 0 12.02 12.76" style="enable-background:new 0 0 12.02 12.76;" xml:space="preserve">
<style type="text/css">
	.st0{fill:#FDCE99;}
	.st1{fill:#E0D2CF;}
	.st2{fill:#C5BAB8;}
	.st3{fill:#FAB178;}
	.st4{fill:#2E454B;}
	.st5{fill:#F16561;}
	.st6{fill:#EE4851;}
	.st7{fill:#EBE7E8;}
</style>
<g>
	<path class="st0" d="M10.17,6.3c0-0.03-0.18-1.17-0.48-1.64C9.58,4.69,9.34,4.72,9.06,4.72c-0.55,0-0.98-0.18-1.22-0.51
		C7.65,4.31,7.2,4.53,6.73,4.53c-0.3,0-0.56-0.08-0.78-0.23c-0.2,0.23-0.83,0.93-1.57,0.93C4.36,5.5,4.27,6.29,3.89,6.61
		c-0.1,0.28,0,1.81,0.4,2.17c0.23,0.23,0.5,0.35,0.8,0.35l0,0c0.41,0,0.83-0.2,1.24-0.41C6.71,8.53,7.07,8.35,7.4,8.35h0.03
		c0.5,0.02,0.93,0.2,1.26,0.35c0.28,0.11,0.53,0.23,0.71,0.18c0.28-0.07,0.41-0.16,0.5-0.23c0.08-0.07,0.18-0.13,0.35-0.1
		C10.26,7.81,10.21,6.78,10.17,6.3z"/>
	<path class="st1" d="M4.11,11.72c0.45,0.26,1.37,0.43,2.39,0.43c1.07,0,2.12-0.18,2.95-0.53c0.98-0.41,1.19-1.12,1.17-1.67
		c0-0.63-0.3-1.17-0.4-1.21c-0.03-0.02-0.07-0.02-0.1-0.02s-0.05,0.02-0.11,0.07c-0.1,0.08-0.25,0.2-0.58,0.26
		c-0.03,0-0.08,0.02-0.11,0.02c-0.2,0-0.43-0.1-0.7-0.21C8.27,8.7,7.89,8.54,7.42,8.52H7.39c-0.3,0-0.63,0.16-0.99,0.35
		C5.96,9.08,5.53,9.3,5.07,9.3l0,0c-0.35,0-0.65-0.13-0.93-0.4C3.68,8.44,3.58,6.76,3.71,6.48c0-0.02,0.02-0.02,0.03-0.03
		c0.4-0.31,0.43-1.36,0.43-1.36c0-0.03,0.02-0.05,0.03-0.07c0.02-0.02,0.05-0.03,0.07-0.02C5.09,5.08,5.83,4.1,5.85,4.09
		c0.02-0.02,0.03-0.03,0.07-0.03c0.03,0,0.05,0,0.07,0.02c0.2,0.16,0.45,0.25,0.73,0.25C7.27,4.32,7.79,4,7.8,3.98
		c0.05-0.03,0.1-0.02,0.13,0.03C8.2,4.43,8.7,4.53,9.06,4.53c0.35,0,0.63-0.08,0.65-0.08c0.03-0.02,0.08,0,0.1,0.03
		c0.3,0.4,0.48,1.34,0.53,1.67c0.85-0.36,0.71-1.22,0.71-1.26c0-0.02,0-0.03,0-0.05c0.51-1.07-0.83-2.09-0.85-2.09
		c-0.02-0.02-0.03-0.03-0.03-0.07c-0.15-0.88-1.21-0.91-1.22-0.91c-0.03,0-0.05-0.02-0.07-0.03C8.44,1.23,7.91,0.98,7.31,0.98
		c-0.83,0-1.49,0.5-1.49,0.5C5.8,1.5,5.77,1.5,5.74,1.5C5.42,1.43,5.12,1.4,4.86,1.4c-1.81,0-2.12,1.44-2.12,1.46
		c0,0.03-0.03,0.05-0.05,0.07C2.06,3.18,1.67,3.57,1.52,4.03c-0.25,0.76,0.2,1.54,0.2,1.56C1.73,5.62,1.73,5.67,1.7,5.7
		C1.39,5.95,1.23,6.24,1.2,6.55c-0.03,0.6,0.43,1.09,0.43,1.09c0.02,0.02,0.03,0.05,0.02,0.08C1.51,8.47,1.59,9.02,1.89,9.38
		c0.36,0.43,0.93,0.46,1.09,0.46c0.05,0,0.05,0,0.05,0c0.03,0,0.05,0.02,0.07,0.03c0.07,0.08,0.11,0.23,0.16,0.43
		C3.38,10.76,3.56,11.38,4.11,11.72z M3.2,8.83c-0.03,0-0.08,0-0.11,0c-0.76,0-1.16-0.66-1.22-1.34c-0.02-0.2,0.05-0.4,0.18-0.55
		c0.13-0.15,0.35-0.25,0.56-0.25c0.3,0,0.56,0.16,0.75,0.45c0.3,0.5,0.31,1.12,0.15,1.44C3.4,8.78,3.28,8.83,3.2,8.83z"/>
	<path class="st2" d="M10.22,8.73c-0.03-0.02-0.07-0.02-0.1-0.02c-0.03,0-0.05,0.02-0.11,0.07c-0.1,0.08-0.25,0.2-0.58,0.26
		c-0.03,0-0.08,0.02-0.11,0.02c-0.2,0-0.43-0.1-0.7-0.21C8.27,8.7,7.89,8.53,7.42,8.52H7.39c-0.3,0-0.63,0.16-0.99,0.35
		C5.96,9.08,5.53,9.3,5.07,9.3l0,0c-0.35,0-0.65-0.13-0.93-0.4C3.68,8.44,3.58,6.76,3.71,6.48c0-0.02,0.02-0.02,0.03-0.03
		c0.4-0.31,0.43-1.36,0.43-1.36c0-0.03,0.02-0.05,0.03-0.07c0.02-0.02,0.05-0.03,0.07-0.02C5.09,5.07,5.83,4.1,5.85,4.08
		c0.02-0.02,0.03-0.03,0.07-0.03s0.05,0,0.07,0.02c0.2,0.16,0.45,0.25,0.73,0.25C7.27,4.31,7.79,4,7.8,3.98
		c0.05-0.03,0.1-0.02,0.13,0.03C8.2,4.43,8.7,4.53,9.06,4.53c0.35,0,0.63-0.08,0.65-0.08c0.03-0.02,0.08,0,0.1,0.03
		c0.3,0.4,0.48,1.34,0.53,1.67c0.43-0.18,0.6-0.48,0.68-0.75c-0.15-0.11-0.28-0.25-0.41-0.45c-0.11-0.2-0.31-0.5-0.33-0.73
		c-0.02-0.13,0.05-0.26,0.07-0.4c-0.58,0-1.16-0.21-1.46-0.75C8.67,3.21,8.32,3.29,8.07,3.29c-0.33,0-0.6-0.11-0.9-0.23
		c-0.1-0.03-0.33-0.2-0.43-0.18c-0.18,0-0.38,0.21-0.55,0.3C5.9,3.32,5.49,3.39,5.24,3.14C5.15,3.41,4.81,3.6,4.61,3.77
		c-0.16,0.13-0.36,0.28-0.58,0.3c-0.05,0-0.16-0.03-0.21-0.03C3.66,4.07,3.73,4.05,3.66,4.22C3.53,4.55,3.48,4.92,3.2,5.18
		c-0.1,0.1-0.23,0.18-0.36,0.21c-0.03,0-0.16-0.02-0.18-0.02c-0.1,0.05-0.1,0.15-0.13,0.28C2.38,6.14,2.14,6.61,1.57,6.62
		c-0.13,0-0.3-0.02-0.43-0.08c0,0,0,0,0,0.02c-0.03,0.6,0.43,1.09,0.43,1.09C1.59,7.66,1.61,7.7,1.59,7.73
		C1.46,8.48,1.54,9.02,1.84,9.39C2.2,9.82,2.76,9.85,2.93,9.85c0.05,0,0.05,0,0.05,0c0.03,0,0.05,0.02,0.07,0.03
		c0.07,0.08,0.11,0.23,0.16,0.43c0.11,0.41,0.28,1.06,0.85,1.39c0.45,0.26,1.37,0.43,2.39,0.43c1.07,0,2.12-0.18,2.95-0.53
		c0.98-0.41,1.19-1.12,1.17-1.67C10.62,9.31,10.32,8.78,10.22,8.73z M3.5,8.62C3.41,8.78,3.3,8.83,3.21,8.85c-0.03,0-0.08,0-0.11,0
		c-0.76,0-1.16-0.66-1.22-1.34c-0.02-0.2,0.05-0.4,0.18-0.55c0.13-0.15,0.35-0.25,0.56-0.25c0.3,0,0.56,0.16,0.75,0.45
		C3.65,7.67,3.65,8.31,3.5,8.62z"/>
	<path class="st3" d="M9.71,4.66c0,0,0-0.02-0.02-0.02C9.58,4.68,9.35,4.71,9.06,4.71c-0.55,0-0.98-0.18-1.22-0.51
		C7.66,4.3,7.21,4.51,6.73,4.51c-0.3,0-0.56-0.08-0.78-0.23C5.75,4.51,5.12,5.2,4.38,5.2C4.36,5.49,4.28,6.28,3.9,6.6
		c-0.1,0.28,0,1.81,0.4,2.17C4.53,9,4.79,9.11,5.09,9.11l0,0c0.28,0,0.56-0.1,0.85-0.23c-0.15-0.02-0.3-0.03-0.45-0.11
		C5.14,8.6,4.84,8.22,4.76,7.85c-0.16-0.75,0.26-1.47,0.3-2.2c0.38-0.16,0.93-0.21,0.99-0.76c0.33,0.08,0.63,0.28,0.99,0.18
		c0.26-0.07,0.45-0.33,0.68-0.25c0.2,0.07,0.36,0.2,0.58,0.25c0.21,0.05,0.43,0.05,0.65,0C9.23,5.01,9.46,4.83,9.71,4.66z"/>
	<path class="st4" d="M8.81,6.76c0.23,0,0.55,0.28,0.46,0.53C9.24,7.36,9.16,7.38,9.11,7.31C9.03,7.2,8.98,7.06,8.81,7.05
		C8.63,7.03,8.6,7.21,8.48,7.31c-0.07,0.07-0.16,0.03-0.2-0.05C8.18,6.96,8.58,6.75,8.81,6.76z"/>
	<path class="st4" d="M6.16,6.66c0.25-0.03,0.58,0.15,0.55,0.45c0,0.05-0.08,0.1-0.11,0.05C6.5,7.05,6.38,6.9,6.2,6.93
		C6.01,6.96,6,7.14,5.9,7.26C5.85,7.31,5.75,7.3,5.72,7.25C5.6,6.96,5.93,6.68,6.16,6.66z"/>
	<path class="st2" d="M8.35,5.95c0.18-0.15,0.4-0.16,0.63-0.11c0.2,0.05,0.35,0.18,0.4,0.38c0.02,0.1-0.05,0.23-0.16,0.21
		C9.13,6.42,9.03,6.42,8.95,6.4c-0.1-0.02-0.18,0.03-0.3,0.05C8.52,6.48,8.39,6.43,8.32,6.32C8.23,6.2,8.25,6.04,8.35,5.95z"/>
	<path class="st2" d="M6.78,6.07c0.02,0.11-0.07,0.21-0.2,0.2C6.49,6.25,6.39,6.2,6.31,6.22C6.2,6.23,6.1,6.32,5.96,6.33
		C5.83,6.35,5.73,6.28,5.73,6.15C5.69,5.57,6.7,5.54,6.78,6.07z"/>
	<path class="st3" d="M7.42,8.12c0.1,0.02,0.23-0.02,0.26-0.13c0.03-0.13-0.1-0.18-0.21-0.16C7.42,7.84,7.39,7.77,7.42,7.74
		C7.49,7.67,7.59,7.65,7.69,7.7C7.8,7.75,7.85,7.85,7.85,7.97c0,0.11-0.07,0.21-0.15,0.28c-0.1,0.08-0.25,0.05-0.35,0
		C7.29,8.21,7.34,8.11,7.42,8.12z"/>
	<path class="st5" d="M8.48,9.36c-0.13-0.18-1.84-0.16-2,0.08c-0.16,0.26,0.33,0.99,1.04,0.99C8.23,10.42,8.68,9.63,8.48,9.36z"/>
	<path class="st6" d="M7.52,9.66c-0.41-0.03-0.6,0.15-0.86,0.38C6.48,9.83,6.4,9.58,6.48,9.46c0.16-0.26,1.87-0.26,2-0.08
		c0.1,0.11,0.05,0.36-0.1,0.58C8.15,9.76,7.82,9.68,7.52,9.66z"/>
	<path class="st3" d="M6.78,5.6c0.51-0.07,1.07-0.07,1.56,0.08c0.02,0,0.02,0.03,0,0.03C7.8,5.69,7.31,5.64,6.78,5.67
		C6.73,5.67,6.73,5.6,6.78,5.6z"/>
	<path class="st3" d="M7.36,5.16c0.13,0.02,0.25,0.03,0.38,0.07c0.03,0,0.02,0.05-0.02,0.05C7.59,5.26,7.48,5.24,7.36,5.21
		C7.32,5.19,7.34,5.14,7.36,5.16z"/>
	<path class="st3" d="M8.35,7.82c0.13,0.31,0.36,0.55,0.66,0.71c0.05,0.03,0.02,0.1-0.03,0.08C8.63,8.48,8.4,8.19,8.28,7.84
		C8.27,7.79,8.33,7.77,8.35,7.82z"/>
	<path class="st3" d="M5.79,8.58c0.3-0.16,0.55-0.4,0.73-0.7C6.53,7.85,6.58,7.87,6.57,7.9c-0.13,0.35-0.4,0.63-0.75,0.78
		C5.77,8.7,5.74,8.62,5.79,8.58z"/>
	<path class="st7" d="M7.84,1.57C7.72,1.42,7.54,1.4,7.36,1.45C7.09,1.29,6.71,1.32,6.45,1.47c-0.03,0.02,0,0.08,0.03,0.07
		c0.25-0.11,0.46-0.08,0.7-0.02C7.11,1.55,7.04,1.6,7.01,1.65C6.96,1.71,7.05,1.8,7.1,1.73C7.18,1.65,7.26,1.6,7.36,1.57l0,0
		c0.02,0.02,0.05,0,0.07-0.02h0.02c0.11,0,0.21,0.07,0.31,0.1C7.84,1.7,7.87,1.6,7.84,1.57z"/>
</g>
</svg>
