<?xml version="1.0" encoding="utf-8"?>
<!-- Generator: Adobe Illustrator 24.2.3, SVG Export Plug-In . SVG Version: 6.00 Build 0)  -->
<svg version="1.1" id="Camada_1" xmlns="http://www.w3.org/2000/svg" xmlns:xlink="http://www.w3.org/1999/xlink" x="0px" y="0px"
	 viewBox="0 0 240 74" style="enable-background:new 0 0 240 74;" xml:space="preserve">
<style type="text/css">
	.st0{fill:#FDCE99;}
	.st1{fill:#2E454B;}
	.st2{fill:#FAB178;}
	.st3{fill:#EBE7E8;}
	.st4{enable-background:new    ;}
	.st5{fill:#FFFFFF;}
	.st6{fill:#EFC652;}
	.st7{fill:#E0D2CF;}
	.st8{fill:#C5BAB8;}
	.st9{fill:#F16561;}
	.st10{fill:#EE4851;}
</style>
<path class="st0" d="M11.8,39.1c-1,0-1.9,0.4-2.6,1.1c-0.6,0.6-0.8,1.5-0.8,2.4c0.3,3.5,2.4,7,6.3,7c0.2,0,0.4,0,0.6,0
	c0.4,0,0.7-0.4,0.8-0.7c0.8-1.6,0.7-5.1-0.9-7.6C14.5,39.9,13.2,39.1,11.8,39.1z"/>
<path class="st1" d="M16.3,40.7c-1-1.7-2.7-2.7-4.5-2.7c-1.3,0-2.6,0.5-3.4,1.5c-0.8,0.9-1.2,2-1.1,3.3c0.4,4,2.8,8.1,7.4,8.1
	c0.2,0,0.5,0,0.7,0c0.5,0,1.2-0.3,1.7-1.4C18.2,47.5,18.1,43.7,16.3,40.7z M16.2,48.9c-0.2,0.3-0.4,0.7-0.8,0.7c-0.2,0-0.4,0-0.6,0
	c-3.9,0-6-3.5-6.3-7c-0.1-0.9,0.2-1.8,0.8-2.4c0.6-0.7,1.6-1.1,2.6-1.1c1.4,0,2.7,0.8,3.5,2.1C16.9,43.8,17,47.3,16.2,48.9z"/>
<path class="st2" d="M13.6,46.3c-1.1-0.3-2-0.8-2.3-1.9c-0.4-1.3,0.9-2.3,1.9-2.8c0.3-0.2,0.1-0.6-0.2-0.6c-1.7,0-2.8,1.7-2.8,3.3
	c0,1.7,1.8,3.2,3.4,2.8C14,46.9,14,46.4,13.6,46.3z"/>
<path class="st2" d="M14.7,45.3c-0.3-0.5-0.7-0.9-1.3-1c-0.2-0.1-0.4,0.2-0.2,0.4c0.3,0.3,0.6,0.6,0.9,1c0.2,0.4,0.2,0.9,0.4,1.2
	c0.1,0.2,0.4,0.2,0.5,0C15.3,46.4,15,45.8,14.7,45.3z"/>
<path class="st3" d="M23.1,7.4c-2.2-0.3-4.6,1.6-4.4,4c0,0.1,0.1,0.2,0.1,0.2c-0.5,0.4-0.8,1-0.9,1.6c-0.1,0.3,0.3,0.4,0.4,0.1
	c0.4-1.1,1.3-2,2.4-2.3c0.2-0.1,0.1-0.4-0.1-0.3c-0.4,0.1-0.8,0.2-1.2,0.5c0.6-1.7,1.7-2.9,3.7-3C23.6,8.1,23.6,7.5,23.1,7.4z"/>
<path class="st3" d="M11.7,16.7c-1.3,0.5-2.2,1.8-2.2,3.3c0,0.3,0.5,0.4,0.5,0.1c0.2-1.2,0.9-2.2,1.8-2.9C12.1,17,12,16.5,11.7,16.7
	z"/>
<g>
	<g class="st4">
		<path class="st5" d="M109.1,32.9c1.6,2,2.4,5,2.4,9V54c0,1.4-0.5,2.6-1.4,3.4s-2.1,1.2-3.7,1.2c-1.5,0-2.8-0.4-3.7-1.2
			s-1.4-2-1.4-3.4V41.7c0-2.7-1.2-4.1-3.5-4.1c-1.5,0-2.7,0.5-3.6,1.4c-0.9,1-1.3,2.2-1.3,3.9V54c0,1.4-0.5,2.6-1.4,3.4
			c-0.9,0.8-2.1,1.2-3.7,1.2c-1.5,0-2.8-0.4-3.7-1.2s-1.4-2-1.4-3.4V22.8c0-1.3,0.5-2.4,1.4-3.2c0.9-0.8,2.2-1.3,3.7-1.3
			s2.6,0.4,3.6,1.2c0.9,0.8,1.4,1.8,1.4,3.2V34c1-1.3,2.3-2.3,3.8-3s3.2-1,5.1-1C105.2,29.9,107.6,30.9,109.1,32.9z"/>
	</g>
	<g class="st4">
		<path class="st6" d="M137.5,33c2,2,3.1,5.2,3.1,9.3v11.8c0,1.4-0.4,2.5-1.3,3.4c-0.8,0.8-2,1.2-3.5,1.2c-1.3,0-2.4-0.4-3.2-1.1
			c-0.8-0.8-1.3-1.8-1.4-3c-0.5,1.4-1.4,2.4-2.6,3.2c-1.2,0.8-2.7,1.1-4.5,1.1c-1.9,0-3.6-0.4-5.2-1.2c-1.5-0.8-2.8-1.8-3.6-3.2
			c-0.9-1.4-1.3-2.9-1.3-4.7c0-2,0.5-3.6,1.6-4.8c1-1.2,2.7-2,4.9-2.6s5.3-0.8,9.1-0.8h1.5V41c0-1.3-0.3-2.3-0.9-2.8
			c-0.6-0.6-1.6-0.9-3-0.9c-1.5,0-3.8,0.5-6.8,1.6c-0.9,0.3-1.6,0.5-2.2,0.5c-0.9,0-1.7-0.3-2.3-1c-0.6-0.7-0.8-1.6-0.8-2.6
			c0-0.8,0.2-1.5,0.5-2s0.9-1,1.6-1.4c1.3-0.7,3-1.2,5-1.6s3.9-0.6,5.9-0.6C132.2,29.9,135.4,31,137.5,33z M129.7,50.6
			c0.9-1,1.3-2.2,1.3-3.7v-0.7h-0.9c-2.4,0-4.1,0.2-5.1,0.6c-1,0.4-1.5,1.2-1.5,2.2c0,0.9,0.3,1.6,0.8,2.1c0.5,0.6,1.2,0.8,2.1,0.8
			C127.7,52.1,128.8,51.6,129.7,50.6z"/>
		<path class="st6" d="M168.9,31.8c1.9,1.2,3.3,2.9,4.3,5.2c1,2.2,1.6,4.8,1.6,7.6c0,2.9-0.5,5.4-1.6,7.5s-2.5,3.8-4.3,5
			s-4,1.7-6.4,1.7c-1.8,0-3.4-0.4-4.9-1.1c-1.5-0.7-2.6-1.7-3.5-2.9v9.6c0,1.3-0.5,2.4-1.4,3.2c-0.9,0.8-2.1,1.2-3.6,1.2
			s-2.8-0.4-3.7-1.3c-0.9-0.8-1.4-1.9-1.4-3.2V34.7c0-1.4,0.4-2.5,1.3-3.4c0.9-0.8,2.1-1.3,3.6-1.3c1.4,0,2.6,0.4,3.5,1.1
			c0.9,0.8,1.4,1.7,1.5,3c0.8-1.3,1.9-2.3,3.5-3.1c1.5-0.8,3.2-1.1,5-1.1C164.9,29.9,167,30.5,168.9,31.8z M163.5,49.5
			c0.9-1.2,1.4-2.8,1.4-5c0-2.3-0.5-4-1.4-5.3c-0.9-1.2-2.3-1.8-4-1.8s-3.1,0.6-4,1.8s-1.4,2.9-1.4,5.2c0,2.2,0.5,3.9,1.4,5.1
			s2.3,1.8,4.1,1.8C161.3,51.3,162.6,50.7,163.5,49.5z"/>
		<path class="st6" d="M202.2,31.8c1.9,1.2,3.3,2.9,4.3,5.2c1,2.2,1.6,4.8,1.6,7.6c0,2.9-0.5,5.4-1.6,7.5s-2.5,3.8-4.3,5
			s-4,1.7-6.4,1.7c-1.8,0-3.4-0.4-4.9-1.1c-1.5-0.7-2.6-1.7-3.5-2.9v9.6c0,1.3-0.5,2.4-1.4,3.2c-0.9,0.8-2.1,1.2-3.6,1.2
			s-2.8-0.4-3.7-1.3c-0.9-0.8-1.4-1.9-1.4-3.2V34.7c0-1.4,0.4-2.5,1.3-3.4c0.9-0.8,2.1-1.3,3.6-1.3c1.4,0,2.6,0.4,3.5,1.1
			c0.9,0.8,1.4,1.7,1.5,3c0.8-1.3,1.9-2.3,3.5-3.1c1.5-0.8,3.2-1.1,5-1.1C198.2,29.9,200.3,30.5,202.2,31.8z M196.8,49.5
			c0.9-1.2,1.4-2.8,1.4-5c0-2.3-0.5-4-1.4-5.3c-0.9-1.2-2.3-1.8-4-1.8s-3.1,0.6-4,1.8s-1.4,2.9-1.4,5.2c0,2.2,0.5,3.9,1.4,5.1
			s2.3,1.8,4.1,1.8C194.5,51.3,195.8,50.7,196.8,49.5z"/>
	</g>
	<g class="st4">
		<path class="st5" d="M230.4,30.8c0.7-0.5,1.5-0.7,2.4-0.7c1.2,0,2.3,0.4,3.3,1.2c1,0.8,1.5,1.8,1.5,3c0,0.6-0.2,1.3-0.5,1.9
			l-14.9,29.9c-0.5,0.9-1,1.6-1.8,2.1c-0.7,0.5-1.5,0.7-2.4,0.7c-1.2,0-2.3-0.4-3.3-1.2c-1-0.8-1.4-1.8-1.4-3c0-0.6,0.2-1.3,0.5-2
			l3.7-7.4l-9.6-19.2c-0.3-0.7-0.5-1.3-0.5-1.8c0-1.2,0.5-2.2,1.6-3.1c1.1-0.8,2.2-1.3,3.6-1.3c0.9,0,1.7,0.2,2.5,0.7
			s1.4,1.2,1.8,2.1l6,13l5.9-13C229.1,31.9,229.7,31.2,230.4,30.8z"/>
	</g>
	<path class="st0" d="M62.8,38.7c-0.1-2.8-1.7-4.2-3.1-4.9c-0.4,0.2-0.8,0.4-1.2,0.6c0.1,1.4,0.3,5.1,0.4,8.9c0.9-0.1,2-0.4,2.8-1.3
		C62.5,41.3,62.9,40.2,62.8,38.7z"/>
	<path class="st0" d="M57.4,34.1c0-0.2-1.1-7.1-2.9-9.9c-0.7,0.2-2.1,0.4-3.8,0.4c-3.3,0-5.9-1.1-7.4-3.1c-1.1,0.6-3.8,1.9-6.7,1.9
		c-1.8,0-3.4-0.5-4.7-1.4c-1.2,1.4-5,5.6-9.5,5.6c-0.1,1.7-0.6,6.5-2.9,8.4c-0.6,1.7,0,10.9,2.4,13.1c1.4,1.4,3,2.1,4.8,2.1l0,0
		c2.5,0,5-1.2,7.5-2.5c2.3-1.1,4.5-2.2,6.5-2.2h0.2c3,0.1,5.6,1.2,7.6,2.1c1.7,0.7,3.2,1.4,4.3,1.1c1.7-0.4,2.5-1,3-1.4
		s1.1-0.8,2.1-0.6C57.9,43.2,57.6,37,57.4,34.1z"/>
	<path class="st7" d="M20.8,66.8c2.7,1.6,8.3,2.6,14.4,2.6c6.5,0,12.8-1.1,17.8-3.2c5.9-2.5,7.2-6.8,7.1-10.1c0-3.8-1.8-7.1-2.4-7.3
		c-0.2-0.1-0.4-0.1-0.6-0.1c-0.2,0-0.3,0.1-0.7,0.4c-0.6,0.5-1.5,1.2-3.5,1.6c-0.2,0-0.5,0.1-0.7,0.1c-1.2,0-2.6-0.6-4.2-1.3
		c-2.1-0.9-4.4-1.9-7.2-2h-0.2c-1.8,0-3.8,1-6,2.1c-2.6,1.3-5.2,2.6-8,2.6l0,0c-2.1,0-3.9-0.8-5.6-2.4c-2.8-2.8-3.4-12.9-2.6-14.6
		c0-0.1,0.1-0.1,0.2-0.2c2.4-1.9,2.6-8.2,2.6-8.2c0-0.2,0.1-0.3,0.2-0.4s0.3-0.2,0.4-0.1c4.9,0.4,9.4-5.5,9.5-5.6s0.2-0.2,0.4-0.2
		c0.2,0,0.3,0,0.4,0.1c1.2,1,2.7,1.5,4.4,1.5c3.4,0,6.5-1.9,6.6-2c0.3-0.2,0.6-0.1,0.8,0.2c1.6,2.5,4.6,3.1,6.8,3.1
		c2.1,0,3.8-0.5,3.9-0.5c0.2-0.1,0.5,0,0.6,0.2c1.8,2.4,2.9,8.1,3.2,10.1c5.1-2.2,4.3-7.4,4.3-7.6c0-0.1,0-0.2,0-0.3
		c3.1-6.5-5-12.6-5.1-12.6c-0.1-0.1-0.2-0.2-0.2-0.4C56.5,7,50.1,6.8,50,6.8c-0.2,0-0.3-0.1-0.4-0.2C46.9,3.5,43.7,2,40.1,2
		c-5,0-9,3-9,3c-0.1,0.1-0.3,0.1-0.5,0.1c-1.9-0.4-3.7-0.6-5.3-0.6c-10.9,0-12.8,8.7-12.8,8.8c0,0.2-0.2,0.3-0.3,0.4
		c-3.8,1.6-6.2,3.9-7.1,6.7c-1.5,4.6,1.2,9.3,1.2,9.4c0.1,0.2,0.1,0.5-0.1,0.7c-1.8,1.5-2.8,3.2-3,5.1c-0.2,3.6,2.6,6.6,2.6,6.6
		c0.1,0.1,0.2,0.3,0.1,0.5c-0.8,4.5-0.3,7.8,1.5,10c2.2,2.6,5.6,2.8,6.6,2.8c0.3,0,0.3,0,0.3,0c0.2,0,0.3,0.1,0.4,0.2
		c0.4,0.5,0.7,1.4,1,2.6C16.4,61,17.5,64.8,20.8,66.8z M15.3,49.4c-0.2,0-0.5,0-0.7,0c-4.6,0-7-4-7.4-8.1c-0.1-1.2,0.3-2.4,1.1-3.3
		c0.8-0.9,2.1-1.5,3.4-1.5c1.8,0,3.4,1,4.5,2.7c1.8,3,1.9,6.8,0.9,8.7C16.5,49.1,15.8,49.4,15.3,49.4z"/>
	<path class="st8" d="M57.7,48.8c-0.2-0.1-0.4-0.1-0.6-0.1c-0.2,0-0.3,0.1-0.7,0.4c-0.6,0.5-1.5,1.2-3.5,1.6c-0.2,0-0.5,0.1-0.7,0.1
		c-1.2,0-2.6-0.6-4.2-1.3c-2.1-0.9-4.4-1.9-7.2-2h-0.2c-1.8,0-3.8,1-6,2.1c-2.6,1.3-5.2,2.6-8,2.6l0,0c-2.1,0-3.9-0.8-5.6-2.4
		c-2.8-2.8-3.4-12.9-2.6-14.6c0-0.1,0.1-0.1,0.2-0.2c2.4-1.9,2.6-8.2,2.6-8.2c0-0.2,0.1-0.3,0.2-0.4s0.3-0.2,0.4-0.1
		c4.9,0.4,9.4-5.5,9.5-5.6s0.2-0.2,0.4-0.2c0.2,0,0.3,0,0.4,0.1c1.2,1,2.7,1.5,4.4,1.5c3.4,0,6.5-1.9,6.6-2c0.3-0.2,0.6-0.1,0.8,0.2
		c1.6,2.5,4.6,3.1,6.8,3.1c2.1,0,3.8-0.5,3.9-0.5c0.2-0.1,0.5,0,0.6,0.2c1.8,2.4,2.9,8.1,3.2,10.1c2.6-1.1,3.6-2.9,4.1-4.5
		C61.6,28,60.8,27.2,60,26c-0.7-1.2-1.9-3-2-4.4c-0.1-0.8,0.3-1.6,0.4-2.4c-3.5,0-7-1.3-8.8-4.5c-1.3,0.8-3.4,1.3-4.9,1.3
		c-2,0-3.6-0.7-5.4-1.4c-0.6-0.2-2-1.2-2.6-1.1c-1.1,0-2.3,1.3-3.3,1.8c-1.8,0.9-4.3,1.3-5.8-0.2c-0.5,1.6-2.6,2.8-3.8,3.8
		c-1,0.8-2.2,1.7-3.5,1.8c-0.3,0-1-0.2-1.3-0.2c-0.9,0.2-0.5,0.1-0.9,1.1c-0.8,2-1.1,4.2-2.8,5.8c-0.6,0.6-1.4,1.1-2.2,1.3
		c-0.2,0-1-0.1-1.1-0.1c-0.6,0.3-0.6,0.9-0.8,1.7c-0.8,2.9-2.3,5.7-5.7,5.8c-0.8,0-1.8-0.1-2.6-0.5c0,0,0,0,0,0.1
		c-0.2,3.6,2.6,6.6,2.6,6.6c0.1,0.1,0.2,0.3,0.1,0.5c-0.8,4.5-0.3,7.8,1.5,10c2.2,2.6,5.6,2.8,6.6,2.8c0.3,0,0.3,0,0.3,0
		c0.2,0,0.3,0.1,0.4,0.2c0.4,0.5,0.7,1.4,1,2.6c0.7,2.5,1.7,6.4,5.1,8.4c2.7,1.6,8.3,2.6,14.4,2.6c6.5,0,12.8-1.1,17.8-3.2
		c5.9-2.5,7.2-6.8,7.1-10.1C60.1,52.3,58.3,49.1,57.7,48.8z M17.1,48.1c-0.5,1-1.2,1.3-1.7,1.4c-0.2,0-0.5,0-0.7,0
		c-4.6,0-7-4-7.4-8.1c-0.1-1.2,0.3-2.4,1.1-3.3c0.8-0.9,2.1-1.5,3.4-1.5c1.8,0,3.4,1,4.5,2.7C18,42.4,18,46.2,17.1,48.1z"/>
	<path class="st2" d="M54.6,24.2c0,0,0-0.1-0.1-0.1c-0.7,0.2-2.1,0.4-3.8,0.4c-3.3,0-5.9-1.1-7.4-3.1c-1.1,0.6-3.8,1.9-6.7,1.9
		c-1.8,0-3.4-0.5-4.7-1.4c-1.2,1.4-5,5.6-9.5,5.6c-0.1,1.7-0.6,6.5-2.9,8.4c-0.6,1.7,0,10.9,2.4,13.1c1.4,1.4,3,2.1,4.8,2.1l0,0
		c1.7,0,3.4-0.6,5.1-1.4c-0.9-0.1-1.8-0.2-2.7-0.7c-2.1-1-3.9-3.3-4.4-5.5c-1-4.5,1.6-8.9,1.8-13.3c2.3-1,5.6-1.3,6-4.6
		c2,0.5,3.8,1.7,6,1.1c1.6-0.4,2.7-2,4.1-1.5c1.2,0.4,2.2,1.2,3.5,1.5s2.6,0.3,3.9,0C51.7,26.3,53.1,25.2,54.6,24.2z"/>
	<path class="st2" d="M60,35.8c-0.2,0-0.3,0.2-0.2,0.3c0.5,0.5,0.9,0.9,1.1,1.7c0.2,0.6,0,1.2-0.1,1.9c0,0.3,0.4,0.4,0.6,0.2
		C62.5,38.7,61.5,36.1,60,35.8z"/>
	<path class="st2" d="M60.3,40.5c-0.1-0.2-0.2-0.4-0.2-0.7s0.1-0.5,0.2-0.8c0.1-0.2-0.2-0.3-0.3-0.3c-0.8,0.4-0.7,1.6,0,2.1
		C60.2,41.1,60.4,40.7,60.3,40.5z"/>
	<path class="st1" d="M49.2,36.9c1.4,0,3.3,1.7,2.8,3.2c-0.2,0.4-0.7,0.5-1,0.1c-0.5-0.7-0.8-1.5-1.8-1.6c-1.1-0.1-1.3,1-2,1.6
		c-0.4,0.4-1,0.2-1.2-0.3C45.4,38.1,47.8,36.8,49.2,36.9z"/>
	<path class="st1" d="M33.2,36.3c1.5-0.2,3.5,0.9,3.3,2.7c0,0.3-0.5,0.6-0.7,0.3c-0.6-0.7-1.3-1.6-2.4-1.4c-1.1,0.2-1.2,1.3-1.8,2
		c-0.3,0.3-0.9,0.2-1.1-0.1C29.8,38.1,31.8,36.4,33.2,36.3z"/>
	<path class="st8" d="M46.4,32c1.1-0.9,2.4-1,3.8-0.7c1.2,0.3,2.1,1.1,2.4,2.3c0.1,0.6-0.3,1.4-1,1.3c-0.5-0.1-1.1-0.1-1.6-0.2
		c-0.6-0.1-1.1,0.2-1.8,0.3c-0.8,0.2-1.6-0.1-2-0.8C45.7,33.5,45.8,32.5,46.4,32z"/>
	<path class="st8" d="M36.9,32.7c0.1,0.7-0.4,1.3-1.2,1.2c-0.5-0.1-1.1-0.4-1.6-0.3c-0.7,0.1-1.3,0.6-2.1,0.7
		c-0.8,0.1-1.4-0.3-1.4-1.1C30.3,29.7,36.4,29.5,36.9,32.7z"/>
	<path class="st2" d="M40.8,45.1c0.6,0.1,1.4-0.1,1.6-0.8c0.2-0.8-0.6-1.1-1.3-1c-0.3,0.1-0.5-0.3-0.3-0.5c0.4-0.4,1-0.5,1.6-0.2
		c0.7,0.3,1,0.9,1,1.6c0,0.7-0.4,1.3-0.9,1.7c-0.6,0.5-1.5,0.3-2.1,0C40,45.6,40.3,45,40.8,45.1z"/>
	<path class="st9" d="M47.2,52.6c-0.8-1.1-11.1-1-12.1,0.5c-1,1.6,2,6,6.3,6C45.7,59,48.4,54.2,47.2,52.6z"/>
	<path class="st10" d="M41.4,54.4c-2.5-0.2-3.6,0.9-5.2,2.3c-1.1-1.3-1.6-2.8-1.1-3.5c1-1.6,11.3-1.6,12.1-0.5
		c0.6,0.7,0.3,2.2-0.6,3.5C45.2,55,43.2,54.5,41.4,54.4z"/>
	<path class="st2" d="M36.9,29.9c3.1-0.4,6.5-0.4,9.4,0.5c0.1,0,0.1,0.2,0,0.2c-3.2-0.2-6.2-0.5-9.4-0.3
		C36.6,30.3,36.6,29.9,36.9,29.9z"/>
	<path class="st2" d="M40.4,27.2c0.8,0.1,1.5,0.2,2.3,0.4c0.2,0,0.1,0.3-0.1,0.3c-0.8-0.1-1.5-0.2-2.2-0.4
		C40.2,27.4,40.3,27.1,40.4,27.2z"/>
	<path class="st2" d="M46.4,43.3c0.8,1.9,2.2,3.3,4,4.3c0.3,0.2,0.1,0.6-0.2,0.5c-2.1-0.8-3.5-2.6-4.2-4.7
		C45.9,43.1,46.3,43,46.4,43.3z"/>
	<path class="st2" d="M30.9,47.9c1.8-1,3.3-2.4,4.4-4.2c0.1-0.2,0.4-0.1,0.3,0.1c-0.8,2.1-2.4,3.8-4.5,4.7
		C30.8,48.6,30.6,48.1,30.9,47.9z"/>
	<path class="st3" d="M43.3,5.5c-0.7-0.9-1.8-1-2.9-0.7c-1.6-1-3.9-0.8-5.5,0.1c-0.2,0.1,0,0.5,0.2,0.4c1.5-0.7,2.8-0.5,4.2-0.1
		c-0.4,0.2-0.8,0.5-1,0.8c-0.3,0.4,0.2,0.9,0.5,0.5c0.5-0.5,1-0.8,1.6-1l0,0c0.1,0.1,0.3,0,0.4-0.1h0.1c0.7,0,1.3,0.4,1.9,0.6
		C43.3,6.3,43.5,5.7,43.3,5.5z"/>
	<path class="st3" d="M54,9.5c-0.6-0.8-1.8-1.3-2.8-1.3c-0.3,0-0.3,0.4-0.1,0.5C51.5,8.9,52,9,52.4,9.2s0.7,0.5,1.1,0.7
		C53.8,10.1,54.2,9.8,54,9.5z"/>
</g>
</svg>
