<?xml version="1.0" encoding="utf-8"?>
<!-- Generator: Adobe Illustrator 24.2.3, SVG Export Plug-In . SVG Version: 6.00 Build 0)  -->
<svg version="1.1" id="Camada_1" xmlns="http://www.w3.org/2000/svg" xmlns:xlink="http://www.w3.org/1999/xlink" x="0px" y="0px"
	 viewBox="0 0 168 72" style="enable-background:new 0 0 168 72;" xml:space="preserve">
<style type="text/css">
	.st0{enable-background:new    ;}
	.st1{fill:#FFFFFF;}
	.st2{fill:#EFC652;}
</style>
<g>
	<g class="st0">
		<path class="st1" d="M33,25.3c1.6,2,2.4,5,2.4,9v12.1c0,1.4-0.5,2.6-1.4,3.4S31.9,51,30.3,51c-1.5,0-2.8-0.4-3.7-1.2
			c-0.9-0.8-1.4-2-1.4-3.4V34.1c0-2.7-1.2-4.1-3.5-4.1c-1.5,0-2.7,0.5-3.6,1.4c-0.9,1-1.3,2.2-1.3,3.9v11.1c0,1.4-0.5,2.6-1.4,3.4
			S13.3,51,11.7,51c-1.5,0-2.8-0.4-3.7-1.2s-1.4-2-1.4-3.4V15.2c0-1.3,0.5-2.4,1.4-3.2c0.9-0.8,2.2-1.3,3.7-1.3s2.6,0.4,3.6,1.2
			c0.9,0.8,1.4,1.8,1.4,3.2v11.3c1-1.3,2.3-2.3,3.8-3s3.2-1,5.1-1C29,22.3,31.5,23.3,33,25.3z"/>
	</g>
	<g class="st0">
		<path class="st2" d="M61.4,25.4c2,2,3.1,5.2,3.1,9.3v11.8c0,1.4-0.4,2.5-1.3,3.4c-0.8,0.8-2,1.2-3.5,1.2c-1.3,0-2.4-0.4-3.2-1.1
			c-0.8-0.8-1.3-1.8-1.4-3c-0.5,1.4-1.4,2.4-2.6,3.2c-1.2,0.8-2.7,1.1-4.5,1.1c-1.9,0-3.6-0.4-5.2-1.2c-1.5-0.8-2.8-1.8-3.6-3.2
			c-0.9-1.4-1.3-2.9-1.3-4.7c0-2,0.5-3.6,1.6-4.8c1-1.2,2.7-2,4.9-2.6s5.3-0.8,9.1-0.8H55v-0.6c0-1.3-0.3-2.3-0.9-2.8
			c-0.6-0.6-1.6-0.9-3-0.9c-1.5,0-3.8,0.5-6.8,1.6c-0.9,0.3-1.6,0.5-2.2,0.5c-0.9,0-1.7-0.3-2.3-1S39,29.2,39,28.2
			c0-0.8,0.2-1.5,0.5-2s0.9-1,1.6-1.4c1.3-0.7,3-1.2,5-1.6s3.9-0.6,5.9-0.6C56,22.3,59.2,23.4,61.4,25.4z M53.5,43
			c0.9-1,1.3-2.2,1.3-3.7v-0.7H54c-2.4,0-4.1,0.2-5.1,0.6c-1,0.4-1.5,1.2-1.5,2.2c0,0.9,0.3,1.6,0.8,2.1c0.5,0.6,1.2,0.8,2.1,0.8
			C51.5,44.5,52.7,44,53.5,43z"/>
		<path class="st2" d="M92.8,24.2c1.9,1.2,3.3,2.9,4.3,5.2c1,2.2,1.6,4.8,1.6,7.6c0,2.9-0.5,5.4-1.6,7.5s-2.5,3.8-4.3,5
			s-4,1.7-6.4,1.7c-1.8,0-3.4-0.4-4.9-1.1c-1.5-0.7-2.6-1.7-3.5-2.9v9.6c0,1.3-0.5,2.4-1.4,3.2s-2.1,1.2-3.6,1.2s-2.8-0.4-3.7-1.3
			c-0.9-0.8-1.4-1.9-1.4-3.2V27.1c0-1.4,0.4-2.5,1.3-3.4c0.9-0.8,2.1-1.3,3.6-1.3c1.4,0,2.6,0.4,3.5,1.1c0.9,0.8,1.4,1.7,1.5,3
			c0.8-1.3,1.9-2.3,3.5-3.1c1.5-0.8,3.2-1.1,5-1.1C88.8,22.3,90.9,22.9,92.8,24.2z M87.4,41.9c0.9-1.2,1.4-2.8,1.4-5
			c0-2.3-0.5-4-1.4-5.3c-0.9-1.2-2.3-1.8-4-1.8s-3.1,0.6-4,1.8c-0.9,1.2-1.4,2.9-1.4,5.2c0,2.2,0.5,3.9,1.4,5.1s2.3,1.8,4.1,1.8
			C85.2,43.7,86.5,43.1,87.4,41.9z"/>
		<path class="st2" d="M126.1,24.2c1.9,1.2,3.3,2.9,4.3,5.2c1,2.2,1.6,4.8,1.6,7.6c0,2.9-0.5,5.4-1.6,7.5s-2.5,3.8-4.3,5
			s-4,1.7-6.4,1.7c-1.8,0-3.4-0.4-4.9-1.1c-1.5-0.7-2.6-1.7-3.5-2.9v9.6c0,1.3-0.5,2.4-1.4,3.2s-2.1,1.2-3.6,1.2s-2.8-0.4-3.7-1.3
			c-0.9-0.8-1.4-1.9-1.4-3.2V27.1c0-1.4,0.4-2.5,1.3-3.4c0.9-0.8,2.1-1.3,3.6-1.3c1.4,0,2.6,0.4,3.5,1.1c0.9,0.8,1.4,1.7,1.5,3
			c0.8-1.3,1.9-2.3,3.5-3.1c1.5-0.8,3.2-1.1,5-1.1C122.1,22.3,124.2,22.9,126.1,24.2z M120.7,41.9c0.9-1.2,1.4-2.8,1.4-5
			c0-2.3-0.5-4-1.4-5.3c-0.9-1.2-2.3-1.8-4-1.8s-3.1,0.6-4,1.8c-0.9,1.2-1.4,2.9-1.4,5.2c0,2.2,0.5,3.9,1.4,5.1s2.3,1.8,4.1,1.8
			C118.4,43.7,119.7,43.1,120.7,41.9z"/>
	</g>
	<g class="st0">
		<path class="st1" d="M154.3,23.2c0.7-0.5,1.5-0.7,2.4-0.7c1.2,0,2.3,0.4,3.3,1.2c1,0.8,1.5,1.8,1.5,3c0,0.6-0.2,1.3-0.5,1.9
			l-14.9,29.9c-0.5,0.9-1,1.6-1.8,2.1c-0.7,0.5-1.5,0.7-2.4,0.7c-1.2,0-2.3-0.4-3.3-1.2s-1.4-1.8-1.4-3c0-0.6,0.2-1.3,0.5-2l3.7-7.4
			l-9.6-19.2c-0.3-0.7-0.5-1.3-0.5-1.8c0-1.2,0.5-2.2,1.6-3.1c1.1-0.8,2.2-1.3,3.6-1.3c0.9,0,1.7,0.2,2.5,0.7s1.4,1.2,1.8,2.1l6,13
			l5.9-13C153,24.3,153.6,23.6,154.3,23.2z"/>
	</g>
</g>
</svg>
